<?xml version="1.0" standalone="no"?>
<!DOCTYPE svg PUBLIC "-//W3C//DTD SVG 20010904//EN"
 "http://www.w3.org/TR/2001/REC-SVG-20010904/DTD/svg10.dtd">
<svg version="1.0" xmlns="http://www.w3.org/2000/svg"
 width="996.000000pt" height="1200.000000pt" viewBox="0 0 996.000000 1200.000000"
 preserveAspectRatio="xMidYMid meet">
<g transform="translate(0.000000,1200.000000) scale(0.100000,-0.100000)"
fill="#000000" stroke="none">
<path d="M4978 11995 c-2 -1 -41 -5 -88 -9 -259 -18 -745 -112 -1040 -201
-101 -30 -336 -107 -355 -115 -11 -5 -78 -32 -150 -60 -125 -49 -309 -141
-391 -194 -78 -51 -178 -122 -215 -151 -20 -16 -56 -46 -80 -64 -89 -71 -347
-340 -436 -455 -93 -121 -117 -164 -46 -84 93 105 281 286 398 381 38 31 75
62 82 67 48 39 238 168 322 219 95 58 300 162 401 205 202 85 532 193 670 220
14 2 58 12 97 20 40 9 87 18 105 21 18 3 58 10 88 16 30 6 71 12 90 15 19 3
78 11 130 19 52 8 124 17 160 20 36 3 101 10 145 15 76 8 687 5 805 -4 140
-11 347 -32 405 -41 17 -3 41 -7 55 -9 235 -37 475 -104 710 -195 74 -29 105
-44 245 -113 294 -147 437 -242 491 -326 33 -52 33 -51 39 -165 6 -113 -8
-149 -86 -222 -60 -55 -186 -134 -269 -170 -94 -39 -79 -39 145 0 189 32 332
83 371 131 21 25 25 26 150 28 224 5 377 -23 474 -85 44 -27 90 -78 90 -98 0
-23 54 -51 98 -51 85 0 395 -111 497 -179 22 -14 52 -32 67 -40 14 -7 73 -51
130 -96 271 -216 452 -476 552 -794 14 -45 28 -94 31 -109 3 -15 7 -38 10 -52
41 -183 50 -465 21 -616 -3 -12 -7 -39 -10 -60 -22 -139 -104 -338 -197 -475
-49 -73 -110 -149 -120 -149 -7 0 -4 75 7 180 4 36 8 81 9 100 2 19 6 80 11
135 4 55 8 156 8 225 0 114 -3 130 -24 168 -41 73 -159 137 -280 153 -36 5
-85 13 -110 18 -67 14 -106 19 -195 26 -129 11 -217 39 -399 129 -94 46 -192
89 -218 95 -26 6 -95 11 -153 11 -87 0 -120 5 -182 25 -86 29 -176 76 -215
113 -22 20 -36 24 -75 23 -129 -3 -449 -51 -658 -97 -38 -9 -82 -18 -96 -20
-78 -13 -478 -118 -629 -164 l-65 -20 90 5 c50 3 101 7 115 9 14 3 61 7 105
11 44 4 98 8 120 11 85 8 163 14 245 19 47 3 105 8 130 10 40 4 87 7 320 20
199 11 507 4 634 -14 33 -4 75 -9 91 -9 137 -5 241 -34 365 -100 104 -56 155
-93 139 -102 -13 -8 -89 -23 -174 -35 -22 -4 -53 -8 -70 -11 -56 -9 -90 -14
-125 -18 -183 -25 -446 -72 -545 -98 -22 -6 -44 -11 -50 -12 -54 -10 -185 -69
-185 -83 0 -5 92 3 137 11 189 37 585 61 673 42 14 -4 120 -8 235 -11 116 -2
320 -7 455 -10 403 -9 505 -16 523 -34 18 -18 24 -87 18 -221 -7 -186 -5 -494
2 -514 5 -14 18 -4 63 46 150 168 277 412 329 633 17 68 20 575 5 655 -54 290
-203 595 -378 775 -98 101 -203 195 -296 264 -177 131 -351 215 -608 295 -65
20 -120 42 -124 47 -15 25 -127 98 -174 113 -124 41 -222 54 -388 52 -89 -1
-162 -1 -162 -1 0 1 5 16 11 33 28 82 13 142 -60 241 -124 167 -304 306 -573
444 -358 183 -731 304 -1155 376 -180 30 -213 35 -338 47 -38 4 -83 8 -100 11
-36 4 -622 12 -627 8z"/>
<path d="M5170 10759 c0 -3 28 -12 63 -19 268 -52 519 -167 594 -273 42 -59
16 -69 -112 -42 -111 24 -292 46 -395 49 -94 2 -378 -34 -458 -58 -9 -3 -28
-7 -42 -10 -66 -11 -289 -91 -440 -156 -97 -43 -320 -150 -320 -154 0 -1 60
15 133 36 120 34 310 76 427 94 25 3 54 8 65 10 11 3 45 7 75 10 30 4 71 8 90
10 92 11 501 11 570 0 81 -13 100 -20 100 -40 0 -21 -98 -57 -190 -71 -25 -4
-54 -9 -65 -11 -11 -2 -40 -7 -65 -10 -64 -9 -223 -57 -343 -105 -104 -41
-439 -205 -480 -234 -21 -16 -20 -16 27 -10 27 3 52 8 55 9 3 2 31 7 61 10 30
4 80 11 110 16 30 5 73 12 95 14 122 13 171 19 176 22 4 2 60 7 125 11 296 17
366 2 636 -136 283 -144 371 -181 434 -181 136 0 304 52 544 169 87 42 142 62
182 67 54 6 59 5 86 -22 23 -24 30 -42 36 -91 4 -34 4 -74 0 -90 -7 -27 -54
-104 -81 -131 -23 -23 -15 -22 65 14 319 146 588 324 705 467 117 143 116 296
-3 349 -103 45 -261 42 -510 -12 -83 -18 -264 -21 -345 -5 -163 31 -285 81
-412 166 -110 74 -183 114 -300 164 -157 68 -375 130 -523 149 -25 3 -56 8
-70 10 -81 14 -300 25 -300 15z m870 -493 c0 -3 -16 -22 -35 -43 -34 -37 -77
-114 -90 -161 -39 -138 80 -322 207 -322 52 0 124 28 157 62 38 39 69 123 77
207 8 80 -5 112 -73 182 -52 54 -44 63 37 42 80 -20 141 -60 166 -110 25 -49
32 -169 13 -235 -14 -47 -96 -170 -138 -205 -52 -44 -128 -67 -231 -67 -84 -1
-101 2 -150 26 -67 33 -141 101 -168 154 -25 50 -42 138 -42 223 0 88 24 136
92 181 65 42 178 84 178 66z"/>
<path d="M2260 10588 c-258 -25 -522 -168 -756 -410 -82 -85 -178 -203 -217
-268 -20 -33 -22 -37 -5 -16 27 35 109 118 164 165 82 71 186 131 354 204 72
31 246 82 315 92 22 4 56 10 75 15 43 10 134 22 290 35 91 8 411 9 535 1 121
-8 241 -20 360 -37 66 -9 220 -34 275 -45 56 -11 -39 24 -200 74 -143 44 -394
112 -470 126 -101 19 -139 26 -170 31 -19 3 -48 8 -65 11 -136 24 -359 34
-485 22z"/>
<path d="M8357 10305 c-100 -34 -179 -108 -235 -220 -31 -62 -67 -163 -60
-170 2 -2 39 19 83 47 217 138 361 285 328 337 -13 20 -67 23 -116 6z"/>
<path d="M2159 9686 c-2 -2 -35 -6 -74 -9 -87 -8 -227 -31 -320 -54 -38 -10
-72 -18 -75 -18 -123 -27 -392 -144 -526 -230 -205 -130 -417 -345 -498 -502
-25 -50 -20 -49 32 2 189 191 484 358 812 460 94 29 177 52 210 59 14 2 54 11
90 20 36 8 81 17 100 20 19 3 44 7 55 10 35 7 171 26 293 40 46 6 150 14 262
22 108 7 596 7 675 0 33 -3 105 -8 160 -11 55 -4 107 -8 115 -10 8 -2 49 -6
90 -9 l75 -5 -60 20 c-171 57 -519 138 -665 155 -25 3 -52 7 -60 9 -8 2 -40 7
-70 10 -30 3 -75 8 -100 11 -49 7 -515 15 -521 10z"/>
<path d="M7469 9076 c-2 -2 -49 -7 -104 -11 -55 -4 -107 -8 -116 -10 -9 -2
-40 -6 -70 -10 -30 -3 -66 -8 -81 -11 -15 -3 -39 -7 -55 -9 -24 -3 -254 -39
-318 -50 -112 -18 -398 -96 -415 -112 -2 -2 22 -2 55 1 33 3 110 8 170 11 61
4 126 8 145 10 19 2 72 6 118 10 46 3 93 9 105 12 30 7 475 13 493 6 12 -4 11
-10 -4 -35 -33 -58 -141 -135 -332 -238 -63 -34 -108 -60 -100 -57 35 11 372
148 455 185 50 22 158 74 240 115 160 81 290 125 389 131 93 6 94 6 51 22 -70
26 -174 36 -401 40 -122 1 -223 2 -225 0z"/>
<path d="M2829 8986 c-2 -2 -67 -7 -144 -10 -261 -13 -323 -19 -505 -52 -151
-26 -174 -31 -198 -38 -9 -3 -28 -7 -42 -10 -84 -14 -294 -80 -445 -139 -340
-132 -641 -319 -893 -552 -148 -136 -330 -554 -476 -1090 -79 -289 -125 -535
-100 -535 5 0 22 21 39 48 156 246 533 658 826 901 68 57 137 114 152 127 15
13 77 59 137 103 450 333 866 531 1390 662 187 46 971 209 1080 224 25 3 52 8
60 10 8 2 40 7 70 10 30 3 62 8 70 10 8 2 44 7 80 10 36 3 72 8 80 10 8 2 47
6 85 10 39 3 81 8 95 10 26 5 83 10 205 20 39 3 93 7 120 10 128 12 374 27
665 40 36 2 76 4 90 5 42 3 -365 80 -550 105 -25 3 -52 8 -60 10 -8 2 -44 7
-80 10 -36 4 -74 9 -85 11 -11 2 -45 6 -75 9 -30 3 -80 8 -110 10 -30 3 -69 8
-86 10 -17 2 -68 7 -115 11 -46 3 -100 7 -119 9 -19 3 -82 7 -140 10 -58 3
-130 8 -160 11 -64 6 -856 15 -861 10z"/>
<path d="M6287 8404 c-1 -1 -44 -5 -95 -8 -51 -4 -100 -9 -110 -11 -9 -1 -55
-6 -102 -10 -47 -4 -87 -8 -90 -10 -3 -2 -43 -6 -90 -10 -47 -3 -92 -8 -100
-10 -8 -2 -42 -7 -75 -10 -33 -3 -70 -7 -81 -9 -12 -2 -45 -7 -75 -11 -30 -3
-79 -10 -109 -15 -30 -5 -71 -12 -90 -14 -53 -7 -129 -23 -295 -61 -82 -19
-193 -41 -245 -50 -52 -8 -115 -20 -140 -25 -142 -30 -285 -62 -291 -65 -3 -2
-21 -7 -39 -10 -59 -10 -348 -92 -515 -145 -183 -58 -502 -172 -560 -200 -11
-5 -54 -23 -95 -39 -205 -80 -614 -278 -742 -358 -21 -13 -40 -23 -43 -23 -10
0 -221 -133 -345 -218 -354 -242 -632 -515 -842 -827 -109 -162 -201 -329
-267 -485 -18 -41 -36 -84 -41 -95 -10 -21 -89 -249 -95 -275 -3 -8 -14 -49
-25 -90 -28 -100 -48 -182 -55 -222 -3 -18 -12 -69 -20 -113 -13 -75 -17 -101
-30 -207 -3 -24 -7 -59 -10 -78 -27 -211 -28 -694 -1 -910 12 -100 21 -148 43
-245 14 -60 26 -117 28 -125 2 -8 17 -62 34 -120 144 -495 359 -930 647 -1312
76 -100 184 -222 191 -215 2 3 -19 83 -47 178 -109 370 -154 572 -185 829 -3
25 -8 57 -10 71 -15 86 -35 253 -42 349 -12 176 -6 557 12 765 13 144 61 489
69 504 2 3 7 28 10 55 4 27 9 52 11 55 1 3 6 22 9 41 7 45 62 262 80 315 8 22
26 78 41 125 30 90 98 275 120 325 147 328 246 477 470 700 144 144 294 284
386 360 14 11 49 40 79 65 143 119 287 216 545 370 105 62 264 158 355 215 91
56 203 124 250 150 99 57 402 208 510 255 41 18 108 48 148 66 41 19 76 34 78
34 3 0 29 11 57 24 117 53 842 353 977 403 144 55 697 241 735 249 11 2 31 8
45 13 23 9 168 53 269 82 l44 13 -29 13 c-22 10 -206 15 -217 7z"/>
<path d="M6645 8133 c-754 -291 -1416 -626 -2030 -1028 -114 -75 -363 -249
-409 -286 -6 -5 -49 -39 -96 -76 -170 -134 -271 -224 -425 -378 -141 -142
-151 -153 -337 -374 -30 -35 -187 -247 -239 -321 -114 -163 -240 -407 -333
-642 -80 -206 -176 -533 -222 -763 -1 -5 -7 -35 -13 -66 -6 -30 -14 -66 -16
-80 -30 -172 -45 -263 -50 -308 -4 -30 -8 -61 -10 -70 -3 -15 -6 -47 -20 -176
-25 -231 -30 -324 -30 -540 1 -272 12 -415 46 -590 78 -400 193 -747 373
-1120 183 -380 434 -759 642 -970 75 -76 120 -110 128 -97 3 5 -8 42 -25 83
-25 61 -101 294 -114 349 -2 8 -24 94 -49 190 -25 97 -47 187 -50 200 -2 14
-20 104 -40 200 -19 96 -37 186 -40 200 -2 14 -9 52 -15 85 -6 33 -13 83 -16
110 -4 28 -8 57 -10 65 -4 15 -7 38 -24 175 -39 314 -46 431 -46 775 0 267 7
433 20 520 2 14 7 52 10 84 5 59 30 233 40 291 14 79 37 201 39 210 2 6 6 28
10 50 50 258 193 707 318 999 190 446 474 917 802 1331 39 49 76 97 83 105
181 234 568 638 852 890 41 36 79 70 85 75 10 10 85 72 191 160 61 50 345 268
416 318 172 121 277 191 558 371 108 68 114 75 46 49z"/>
<path d="M6845 7923 c-3 -21 -16 -78 -29 -128 -206 -804 -238 -942 -271 -1195
-11 -85 -14 -112 -20 -170 -4 -36 -8 -72 -10 -80 -2 -8 -6 -53 -9 -100 -4 -47
-9 -105 -11 -130 -28 -316 -24 -710 9 -1035 3 -27 8 -75 11 -105 3 -30 7 -75
10 -100 3 -25 7 -67 10 -95 6 -59 15 -140 20 -175 4 -26 11 -82 20 -152 3 -24
10 -68 15 -98 18 -107 20 -117 24 -153 12 -87 89 -445 126 -582 58 -213 179
-566 246 -716 55 -124 194 -351 270 -439 96 -112 127 -145 203 -219 47 -46
102 -96 121 -112 295 -240 709 -501 940 -593 242 -96 403 -135 519 -127 7 1
-40 27 -105 60 -337 166 -619 359 -839 575 -183 180 -268 294 -557 741 -179
278 -309 578 -417 960 -17 61 -36 126 -41 145 -11 37 -58 228 -66 268 -2 12
-22 95 -43 185 -38 155 -64 277 -75 342 -26 157 -59 446 -71 620 -3 44 -8 100
-10 125 -3 25 -8 99 -11 165 -4 66 -8 140 -9 165 -26 478 -26 1201 0 1460 2
19 6 71 10 115 3 44 8 91 10 105 4 24 10 90 20 200 3 30 7 71 10 90 8 64 16
220 12 220 -3 0 -8 -17 -12 -37z"/>
<path d="M6584 7810 c-22 -17 -55 -48 -74 -69 -19 -21 -85 -92 -146 -157 -206
-220 -207 -221 -387 -434 -88 -104 -294 -365 -405 -515 -368 -493 -656 -997
-899 -1575 -24 -58 -50 -118 -58 -135 -7 -16 -44 -115 -83 -220 -115 -311
-222 -676 -252 -865 -7 -41 -14 -84 -16 -95 -3 -11 -7 -36 -10 -55 -3 -19 -7
-46 -9 -60 -10 -63 -15 -98 -20 -144 -2 -26 -7 -56 -9 -65 -3 -9 -8 -50 -11
-92 -3 -42 -7 -85 -9 -95 -9 -47 -20 -295 -20 -469 0 -166 6 -296 19 -400 2
-16 6 -55 10 -85 19 -169 97 -481 161 -650 32 -83 144 -310 186 -375 196 -309
474 -553 903 -795 358 -202 853 -382 1248 -454 33 -6 33 -3 5 26 -13 13 -54
59 -93 103 -38 44 -72 82 -75 85 -3 3 -22 26 -43 52 -21 26 -43 53 -50 60 -7
7 -34 40 -62 73 -27 33 -52 62 -55 65 -13 12 -234 295 -316 405 -49 66 -93
124 -97 130 -30 36 -181 260 -249 369 -198 317 -353 678 -431 1006 -26 106
-30 127 -47 235 -37 234 -56 789 -37 1070 8 116 38 354 62 480 11 62 48 238
60 285 8 30 16 66 19 80 2 14 23 97 46 185 23 88 43 167 45 175 6 26 84 306
151 544 90 315 173 546 314 876 82 192 90 208 255 545 126 257 172 345 312
605 28 50 186 332 210 373 8 14 -4 7 -43 -23z"/>
<path d="M6462 7143 c-28 -70 -53 -139 -56 -153 -5 -26 -114 -410 -139 -490
-7 -25 -14 -47 -14 -50 0 -3 -7 -30 -16 -60 -49 -170 -134 -529 -152 -640 -3
-19 -8 -42 -10 -50 -5 -16 -6 -26 -30 -170 -8 -52 -17 -106 -19 -120 -4 -22
-7 -46 -22 -155 -2 -16 -6 -52 -9 -80 -3 -27 -8 -61 -10 -75 -2 -14 -7 -50
-10 -80 -5 -51 -10 -96 -20 -175 -2 -16 -6 -72 -10 -124 -4 -52 -8 -102 -10
-111 -2 -10 -6 -62 -10 -116 -3 -55 -8 -119 -10 -144 -2 -25 -7 -97 -11 -160
-3 -63 -8 -140 -10 -170 -9 -119 -12 -619 -4 -685 4 -38 11 -95 14 -125 12
-110 38 -272 66 -415 11 -55 22 -111 25 -124 46 -243 74 -332 152 -485 60
-115 187 -313 267 -412 93 -116 112 -139 155 -188 78 -89 313 -319 403 -394
298 -250 719 -490 972 -556 78 -21 166 -30 166 -18 0 5 -26 20 -57 33 -440
176 -910 581 -1187 1024 -139 221 -309 599 -392 870 -13 44 -28 94 -34 110
-14 45 -68 265 -75 305 -3 19 -10 53 -15 75 -11 51 -57 324 -65 390 -3 28 -8
61 -10 75 -2 14 -7 48 -10 75 -3 28 -7 68 -10 90 -10 86 -21 222 -30 365 -3
52 -8 122 -10 155 -4 69 -5 670 -1 760 7 135 18 332 21 370 2 22 7 81 10 130
4 50 8 104 10 120 2 17 6 59 10 95 10 114 16 163 26 241 5 42 12 96 14 120 3
24 7 60 10 79 3 19 7 53 10 75 5 39 15 106 20 135 2 8 6 38 9 65 4 28 11 75
16 105 5 30 12 71 15 90 6 34 81 450 91 500 3 13 14 62 25 108 11 47 18 87 15
89 -2 2 -27 -53 -54 -124z"/>
</g>
</svg>
